<svg xmlns="http://www.w3.org/2000/svg" width="1200" height="736" viewBox="0 0 1200 736" font-family="Arial, Helvetica, sans-serif">
<rect width="1200" height="736" fill="#ffffff"/>
<g transform="translate(0,0)"><text x="600" y="24" text-anchor="middle" font-size="18" font-weight="bold" fill="#202124">EVERYTHING EVERYWHERE ALL AT ONCE — The verse-jump net</text>
<text x="600" y="42" text-anchor="middle" font-size="11" fill="#5f6368">EE — The verse-jump net · Coexisting multiverse, consciousness-hopped across parallel selves</text>
<line x1="850.0" y1="90.0" x2="850.0" y2="420.0" stroke="#9aa0a6" stroke-width="2" stroke-opacity="1.0"/>
<rect x="843.0" y="72.0" width="14" height="14" fill="#e8f0fe" stroke="#202124"/>
<text x="850.0" y="58.0" text-anchor="middle" font-size="11" fill="#202124">E0: The base verse — the laund</text>
<line x1="600.0" y1="90.0" x2="600.0" y2="258.0" stroke="#9aa0a6" stroke-width="2" stroke-opacity="1.0"/>
<text x="600.0" y="82.0" text-anchor="middle" font-size="10" fill="#5f6368">* already existed</text>
<text x="600.0" y="58.0" text-anchor="middle" font-size="11" fill="#202124">A: The Alpha verse — where ve</text>
<line x1="350.0" y1="90.0" x2="350.0" y2="312.0" stroke="#9aa0a6" stroke-width="2" stroke-opacity="1.0"/>
<text x="350.0" y="82.0" text-anchor="middle" font-size="10" fill="#5f6368">* already existed</text>
<text x="350.0" y="58.0" text-anchor="middle" font-size="11" fill="#202124">V1: A parallel verse (the hot-</text>
<line x1="100.0" y1="90.0" x2="100.0" y2="366.0" stroke="#9aa0a6" stroke-width="2" stroke-opacity="1.0"/>
<text x="100.0" y="82.0" text-anchor="middle" font-size="10" fill="#5f6368">* already existed</text>
<text x="100.0" y="58.0" text-anchor="middle" font-size="11" fill="#202124">V2: A comfort verse</text>
<line x1="850.0" y1="204.0" x2="600.0" y2="258.0" stroke="#e8a33d" stroke-width="2" stroke-opacity="1.0"/>
<text x="725.0" y="225.0" text-anchor="middle" font-size="13" font-weight="bold" fill="#e8a33d">+</text>
<line x1="850.0" y1="204.0" x2="350.0" y2="312.0" stroke="#e8a33d" stroke-width="2" stroke-dasharray="6,4" stroke-opacity="1.0"/>
<text x="600.0" y="252.0" text-anchor="middle" font-size="13" font-weight="bold" fill="#e8a33d">-</text>
<polyline points="850.0,150.0 725.0,150.0 725.0,258.0 600.0,258.0" fill="none" stroke="#2f7d4f" stroke-width="2" stroke-opacity="0.6"/>
<circle cx="725.0" cy="204.0" r="10" fill="#ffffff" stroke="#2f7d4f"/>
<text x="725.0" y="208.0" text-anchor="middle" font-size="12" font-weight="bold" fill="#2f7d4f">C</text>
<polyline points="600.0,258.0 475.0,258.0 475.0,312.0 350.0,312.0" fill="none" stroke="#2f7d4f" stroke-width="2" stroke-opacity="0.6"/>
<circle cx="475.0" cy="285.0" r="10" fill="#ffffff" stroke="#2f7d4f"/>
<text x="475.0" y="289.0" text-anchor="middle" font-size="12" font-weight="bold" fill="#2f7d4f">C</text>
<polyline points="350.0,312.0 225.0,312.0 225.0,366.0 100.0,366.0" fill="none" stroke="#2f7d4f" stroke-width="2" stroke-opacity="0.6"/>
<circle cx="225.0" cy="339.0" r="10" fill="#ffffff" stroke="#2f7d4f"/>
<text x="225.0" y="343.0" text-anchor="middle" font-size="12" font-weight="bold" fill="#2f7d4f">C</text>
<line x1="850.0" y1="96.0" x2="850.0" y2="150.0" stroke="#2f7d4f" stroke-width="6" stroke-opacity="0.35" stroke-linecap="round"/>
<line x1="600.0" y1="258.0" x2="600.0" y2="258.0" stroke="#2f7d4f" stroke-width="6" stroke-opacity="0.35" stroke-linecap="round"/>
<line x1="350.0" y1="312.0" x2="350.0" y2="312.0" stroke="#2f7d4f" stroke-width="6" stroke-opacity="0.35" stroke-linecap="round"/>
<line x1="100.0" y1="366.0" x2="100.0" y2="366.0" stroke="#2f7d4f" stroke-width="6" stroke-opacity="0.35" stroke-linecap="round"/>
<line x1="850.0" y1="150.0" x2="600.0" y2="258.0" stroke="#2f7d4f" stroke-width="6" stroke-opacity="0.35" stroke-linecap="round"/>
<line x1="600.0" y1="258.0" x2="350.0" y2="312.0" stroke="#2f7d4f" stroke-width="6" stroke-opacity="0.35" stroke-linecap="round"/>
<line x1="350.0" y1="312.0" x2="100.0" y2="366.0" stroke="#2f7d4f" stroke-width="6" stroke-opacity="0.35" stroke-linecap="round"/>
<rect x="844.0" y="90.0" width="12" height="12" fill="#3d8f4f" stroke="#202124"/>
<text x="850.0" y="112.0" text-anchor="middle" font-size="9" fill="#5f6368">0</text>
<circle cx="850.0" cy="150.0" r="5" fill="#ffffff" stroke="#202124"/>
<text x="850.0" y="166.0" text-anchor="middle" font-size="9" fill="#5f6368">10</text>
<circle cx="850.0" cy="204.0" r="7" fill="#e8a33d" stroke="#202124"/>
<text x="850.0" y="220.0" text-anchor="middle" font-size="9" fill="#5f6368">20</text>
<circle cx="600.0" cy="258.0" r="5" fill="#ffffff" stroke="#202124"/>
<text x="600.0" y="274.0" text-anchor="middle" font-size="9" fill="#5f6368">25</text>
<circle cx="350.0" cy="312.0" r="5" fill="#ffffff" stroke="#202124"/>
<text x="350.0" y="328.0" text-anchor="middle" font-size="9" fill="#5f6368">30</text>
<circle cx="100.0" cy="366.0" r="5" fill="#ffffff" stroke="#202124"/>
<text x="100.0" y="382.0" text-anchor="middle" font-size="9" fill="#5f6368">40</text>
<rect x="844.0" y="414.0" width="12" height="12" fill="#5f6368" stroke="#202124"/>
<text x="850.0" y="436.0" text-anchor="middle" font-size="9" fill="#5f6368">50</text>
<text x="864.0" y="424.0" font-size="14" font-weight="bold" fill="#2f7d4f">●</text>
<text x="868.0" y="424.0" font-size="8" fill="#5f6368">ev-e0</text>
<text x="864.0" y="424.0" font-size="14" font-weight="bold" fill="#2f7d4f">●</text>
<text x="868.0" y="424.0" font-size="8" fill="#5f6368">ev-v1</text>
<line x1="850.0" y1="96.0" x2="785.2" y2="75.0" stroke="#5f6368" stroke-width="1" stroke-opacity="0.5"/>
<text x="785.2" y="61.0" font-size="9" fill="#5f6368">Evelyn at the laundromat</text>
<text x="785.2" y="72.0" font-size="9" fill="#5f6368">before the IRS audit</text>
<line x1="850.0" y1="150.0" x2="862.0" y2="150.0" stroke="#5f6368" stroke-width="1" stroke-opacity="0.5"/>
<text x="862.0" y="147.0" font-size="9" fill="#5f6368">She learns to verse-jump</text>
<text x="862.0" y="158.0" font-size="9" fill="#5f6368">into her parallel selves</text>
<line x1="850.0" y1="204.0" x2="862.0" y2="226.0" stroke="#5f6368" stroke-width="1" stroke-opacity="0.5"/>
<text x="862.0" y="234.0" font-size="9" fill="#5f6368">A decision that spawns a</text>
<text x="862.0" y="245.0" font-size="9" fill="#5f6368">branch verse</text>
<line x1="600.0" y1="258.0" x2="612.0" y2="280.0" stroke="#5f6368" stroke-width="1" stroke-opacity="0.5"/>
<text x="612.0" y="288.0" font-size="9" fill="#5f6368">She enters the Alpha</text>
<text x="612.0" y="299.0" font-size="9" fill="#5f6368">verse</text>
<line x1="350.0" y1="312.0" x2="362.0" y2="334.0" stroke="#5f6368" stroke-width="1" stroke-opacity="0.5"/>
<text x="362.0" y="342.0" font-size="9" fill="#5f6368">She hops into the</text>
<text x="362.0" y="353.0" font-size="9" fill="#5f6368">hot-dog-fingers verse</text>
<line x1="100.0" y1="366.0" x2="112.0" y2="388.0" stroke="#5f6368" stroke-width="1" stroke-opacity="0.5"/>
<text x="112.0" y="396.0" font-size="9" fill="#5f6368">She takes comfort in a</text>
<text x="112.0" y="407.0" font-size="9" fill="#5f6368">quieter verse</text>
<line x1="850.0" y1="420.0" x2="862.0" y2="442.0" stroke="#5f6368" stroke-width="1" stroke-opacity="0.5"/>
<text x="862.0" y="450.0" font-size="9" fill="#5f6368">She chooses the</text>
<text x="862.0" y="461.0" font-size="9" fill="#5f6368">googly-eyed family...</text></g>
</svg>