<svg xmlns="http://www.w3.org/2000/svg" width="900" height="628" viewBox="0 0 900 628" font-family="Arial, Helvetica, sans-serif">
<rect width="900" height="628" fill="#ffffff"/>
<g transform="translate(0,0)"><text x="225" y="24" text-anchor="middle" font-size="18" font-weight="bold" fill="#202124">PREDESTINATION — The temporal agency loop</text>
<text x="225" y="42" text-anchor="middle" font-size="11" fill="#5f6368">PRE — The temporal agency loop · Single closed timeline, bootstrap self-ancestry</text>
<line x1="79.1" y1="94.2" x2="32.9" y2="282.3" stroke="#9aa0a6" stroke-width="2" stroke-opacity="1.0"/>
<rect x="93.0" y="72.0" width="14" height="14" fill="#e8f0fe" stroke="#202124"/>
<text x="100.0" y="58.0" text-anchor="middle" font-size="11" fill="#202124">T: The closed timeline</text>
<polygon points="65.4,91.7 92.8,96.8 46.6,284.8 19.3,279.8" fill="#e8f0fe" stroke="#9aa0a6" stroke-width="1"/>
<line x1="77.9" y1="98.3" x2="32.9" y2="281.3" stroke="#2f7d4f" stroke-width="6" stroke-opacity="0.35" stroke-linecap="round"/>
<rect x="71.9" y="93.3" width="12" height="12" fill="#3d8f4f" stroke="#202124"/>
<text x="77.9" y="115.3" text-anchor="middle" font-size="9" fill="#5f6368">0</text>
<text x="86.9" y="102.3" font-size="9" fill="#5f6368">The bartender's ordinary d</text>
<path d="M 66.6 139.1 L 72.6 145.1 L 66.6 151.1 L 60.6 145.1 Z" fill="#5f6368" stroke="#202124"/>
<text x="66.6" y="161.1" text-anchor="middle" font-size="9" fill="#5f6368">10</text>
<text x="75.6" y="148.1" font-size="9" fill="#5f6368">He meets the Unmarried Mot</text>
<circle cx="55.4" cy="190.8" r="4" fill="#202124"/>
<text x="55.4" y="206.8" text-anchor="middle" font-size="9" fill="#5f6368">20</text>
<text x="64.4" y="193.8" font-size="9" fill="#5f6368">The surgery — he is 'the U</text>
<path d="M 44.2 230.6 L 50.2 236.6 L 44.2 242.6 L 38.2 236.6 Z" fill="#5f6368" stroke="#202124"/>
<text x="44.2" y="252.6" text-anchor="middle" font-size="9" fill="#5f6368">30</text>
<text x="53.2" y="239.6" font-size="9" fill="#5f6368">He is sent to meet his own</text>
<rect x="26.9" y="276.3" width="12" height="12" fill="#5f6368" stroke="#202124"/>
<text x="32.9" y="298.3" text-anchor="middle" font-size="9" fill="#5f6368">40</text>
<text x="41.9" y="285.3" font-size="9" fill="#5f6368">He takes the place of the </text>
<text x="46.6" y="288.8" font-size="14" font-weight="bold" fill="#2f7d4f">●</text>
<text x="50.6" y="288.8" font-size="8" fill="#5f6368">a-t</text></g>
</svg>