<svg xmlns="http://www.w3.org/2000/svg" width="900" height="682" viewBox="0 0 900 682" font-family="Arial, Helvetica, sans-serif">
<rect width="900" height="682" fill="#ffffff"/>
<g transform="translate(0,0)"><text x="225" y="24" text-anchor="middle" font-size="18" font-weight="bold" fill="#202124">Steins;Gate</text>
<text x="225" y="42" text-anchor="middle" font-size="11" fill="#5f6368">SG — Steins;Gate · Worldline shifts with divergence metric - Okabe's Reading Steiner carries memory across</text>
<line x1="100.0" y1="90.0" x2="100.0" y2="366.0" stroke="#9aa0a6" stroke-width="2" stroke-opacity="1.0"/>
<rect x="93.0" y="72.0" width="14" height="14" fill="#e8f0fe" stroke="#202124"/>
<text x="100.0" y="58.0" text-anchor="middle" font-size="11" fill="#202124">W: One mutable worldline</text>
<line x1="100.0" y1="96.0" x2="100.0" y2="96.0" stroke="#2f7d4f" stroke-width="6" stroke-opacity="0.35" stroke-linecap="round"/>
<line x1="100.0" y1="150.0" x2="100.0" y2="204.0" stroke="#2f7d4f" stroke-width="6" stroke-opacity="0.35" stroke-linecap="round"/>
<line x1="100.0" y1="258.0" x2="100.0" y2="258.0" stroke="#2f7d4f" stroke-width="6" stroke-opacity="0.35" stroke-linecap="round"/>
<line x1="100.0" y1="312.0" x2="100.0" y2="366.0" stroke="#2f7d4f" stroke-width="6" stroke-opacity="0.35" stroke-linecap="round"/>
<line x1="100.0" y1="96.0" x2="100.0" y2="150.0" stroke="#2f7d4f" stroke-width="6" stroke-opacity="0.35" stroke-linecap="round"/>
<line x1="100.0" y1="204.0" x2="100.0" y2="258.0" stroke="#2f7d4f" stroke-width="6" stroke-opacity="0.35" stroke-linecap="round"/>
<line x1="100.0" y1="258.0" x2="100.0" y2="312.0" stroke="#2f7d4f" stroke-width="6" stroke-opacity="0.35" stroke-linecap="round"/>
<rect x="94.0" y="90.0" width="12" height="12" fill="#3d8f4f" stroke="#202124"/>
<text x="100.0" y="112.0" text-anchor="middle" font-size="9" fill="#5f6368">0</text>
<path d="M 100.0 144.0 L 106.0 150.0 L 100.0 156.0 L 94.0 150.0 Z" fill="#5f6368" stroke="#202124"/>
<text x="100.0" y="166.0" text-anchor="middle" font-size="9" fill="#5f6368">10</text>
<rect x="94.0" y="198.0" width="12" height="12" fill="#5f6368" stroke="#202124"/>
<text x="100.0" y="220.0" text-anchor="middle" font-size="9" fill="#5f6368">20</text>
<path d="M 100.0 252.0 L 106.0 258.0 L 100.0 264.0 L 94.0 258.0 Z" fill="#5f6368" stroke="#202124"/>
<text x="100.0" y="274.0" text-anchor="middle" font-size="9" fill="#5f6368">30</text>
<circle cx="100.0" cy="312.0" r="4" fill="#202124"/>
<text x="100.0" y="328.0" text-anchor="middle" font-size="9" fill="#5f6368">40</text>
<rect x="94.0" y="360.0" width="12" height="12" fill="#5f6368" stroke="#202124"/>
<text x="100.0" y="382.0" text-anchor="middle" font-size="9" fill="#5f6368">50</text>
<text x="114.0" y="100.0" font-size="14" font-weight="bold" fill="#7f8c8d">?</text>
<text x="118.0" y="100.0" font-size="8" fill="#5f6368">kurisu</text>
<text x="114.0" y="208.0" font-size="14" font-weight="bold" fill="#c0392b">×</text>
<text x="118.0" y="208.0" font-size="8" fill="#5f6368">mayuri</text>
<text x="114.0" y="370.0" font-size="14" font-weight="bold" fill="#2f7d4f">●</text>
<text x="118.0" y="370.0" font-size="8" fill="#5f6368">kurisu</text>
<text x="114.0" y="370.0" font-size="14" font-weight="bold" fill="#2f7d4f">●</text>
<text x="118.0" y="370.0" font-size="8" fill="#5f6368">mayuri</text>
<line x1="100.0" y1="96.0" x2="40.6" y2="75.0" stroke="#5f6368" stroke-width="1" stroke-opacity="0.5"/>
<text x="40.6" y="61.0" font-size="9" fill="#5f6368">Kurisu found in a pool</text>
<text x="40.6" y="72.0" font-size="9" fill="#5f6368">of blood - the b...</text>
<line x1="100.0" y1="150.0" x2="112.0" y2="150.0" stroke="#5f6368" stroke-width="1" stroke-opacity="0.5"/>
<text x="112.0" y="147.0" font-size="9" fill="#5f6368">The first D-Mail crosses</text>
<text x="112.0" y="158.0" font-size="9" fill="#5f6368">to the past - worldl...</text>
<line x1="100.0" y1="204.0" x2="112.0" y2="204.0" stroke="#5f6368" stroke-width="1" stroke-opacity="0.5"/>
<text x="112.0" y="201.0" font-size="9" fill="#5f6368">Mayuri dies again and</text>
<text x="112.0" y="212.0" font-size="9" fill="#5f6368">again - alph...</text>
<line x1="100.0" y1="258.0" x2="112.0" y2="258.0" stroke="#5f6368" stroke-width="1" stroke-opacity="0.5"/>
<text x="112.0" y="255.0" font-size="9" fill="#5f6368">D-Mails undone one by</text>
<text x="112.0" y="266.0" font-size="9" fill="#5f6368">one - back to beta;...</text>
<line x1="100.0" y1="312.0" x2="112.0" y2="312.0" stroke="#5f6368" stroke-width="1" stroke-opacity="0.5"/>
<text x="112.0" y="309.0" font-size="9" fill="#5f6368">Operation Skuld - the</text>
<text x="112.0" y="320.0" font-size="9" fill="#5f6368">lie that fools...</text>
<line x1="100.0" y1="366.0" x2="112.0" y2="388.0" stroke="#5f6368" stroke-width="1" stroke-opacity="0.5"/>
<text x="112.0" y="396.0" font-size="9" fill="#5f6368">Steins Gate - Kurisu</text>
<text x="112.0" y="407.0" font-size="9" fill="#5f6368">alive, Mayuri alive,...</text></g>
</svg>