<svg xmlns="http://www.w3.org/2000/svg" width="950" height="844" viewBox="0 0 950 844" font-family="Arial, Helvetica, sans-serif">
<rect width="950" height="844" fill="#ffffff"/>
<g transform="translate(0,0)"><text x="475" y="24" text-anchor="middle" font-size="18" font-weight="bold" fill="#202124">Tenet</text>
<text x="475" y="42" text-anchor="middle" font-size="11" fill="#5f6368">TNT — Tenet · Per-traveller direction; turnstiles fork forward and inverted strands</text>
<line x1="600.0" y1="90.0" x2="600.0" y2="528.0" stroke="#9aa0a6" stroke-width="2" stroke-opacity="1.0"/>
<rect x="593.0" y="72.0" width="14" height="14" fill="#e8f0fe" stroke="#202124"/>
<text x="600.0" y="58.0" text-anchor="middle" font-size="11" fill="#202124">FWD: Forward flow (default)</text>
<line x1="350.0" y1="90.0" x2="350.0" y2="312.0" stroke="#9aa0a6" stroke-width="2" stroke-opacity="1.0"/>
<text x="350.0" y="82.0" text-anchor="middle" font-size="10" fill="#5f6368">* already existed</text>
<text x="350.0" y="58.0" text-anchor="middle" font-size="11" fill="#202124">INV: Inverted flow (turnstile s</text>
<line x1="100.0" y1="90.0" x2="100.0" y2="474.0" stroke="#9aa0a6" stroke-width="2" stroke-opacity="1.0"/>
<text x="100.0" y="82.0" text-anchor="middle" font-size="10" fill="#5f6368">* already existed</text>
<text x="100.0" y="58.0" text-anchor="middle" font-size="11" fill="#202124">STALSK: Stalsk-12 pincer battlefie</text>
<line x1="600.0" y1="204.0" x2="600.0" y2="150.0" stroke="#e8a33d" stroke-width="2" stroke-opacity="1.0"/>
<text x="600.0" y="171.0" text-anchor="middle" font-size="13" font-weight="bold" fill="#e8a33d">+</text>
<line x1="600.0" y1="204.0" x2="350.0" y2="258.0" stroke="#e8a33d" stroke-width="2" stroke-dasharray="6,4" stroke-opacity="1.0"/>
<text x="475.0" y="225.0" text-anchor="middle" font-size="13" font-weight="bold" fill="#e8a33d">-</text>
<line x1="600.0" y1="366.0" x2="600.0" y2="528.0" stroke="#e8a33d" stroke-width="2" stroke-opacity="1.0"/>
<text x="600.0" y="441.0" text-anchor="middle" font-size="13" font-weight="bold" fill="#e8a33d">+</text>
<line x1="600.0" y1="366.0" x2="100.0" y2="420.0" stroke="#e8a33d" stroke-width="2" stroke-dasharray="6,4" stroke-opacity="1.0"/>
<text x="350.0" y="387.0" text-anchor="middle" font-size="13" font-weight="bold" fill="#e8a33d">-</text>
<polyline points="600.0,204.0 475.0,204.0 475.0,258.0 350.0,258.0" fill="none" stroke="#2f7d4f" stroke-width="2" stroke-opacity="0.6"/>
<circle cx="475.0" cy="231.0" r="10" fill="#ffffff" stroke="#2f7d4f"/>
<text x="475.0" y="235.0" text-anchor="middle" font-size="12" font-weight="bold" fill="#2f7d4f">·</text>
<polyline points="350.0,312.0 475.0,312.0 475.0,150.0 600.0,150.0" fill="none" stroke="#2f7d4f" stroke-width="2" stroke-opacity="0.6"/>
<circle cx="475.0" cy="231.0" r="10" fill="#ffffff" stroke="#2f7d4f"/>
<text x="475.0" y="235.0" text-anchor="middle" font-size="12" font-weight="bold" fill="#2f7d4f">·</text>
<polyline points="350.0,312.0 225.0,312.0 225.0,420.0 100.0,420.0" fill="none" stroke="#2f7d4f" stroke-width="2" stroke-opacity="0.6"/>
<circle cx="225.0" cy="366.0" r="10" fill="#ffffff" stroke="#2f7d4f"/>
<text x="225.0" y="370.0" text-anchor="middle" font-size="12" font-weight="bold" fill="#2f7d4f">·</text>
<line x1="600.0" y1="96.0" x2="600.0" y2="204.0" stroke="#2f7d4f" stroke-width="6" stroke-opacity="0.35" stroke-linecap="round"/>
<line x1="350.0" y1="258.0" x2="350.0" y2="312.0" stroke="#2f7d4f" stroke-width="6" stroke-opacity="0.35" stroke-linecap="round"/>
<line x1="600.0" y1="150.0" x2="600.0" y2="528.0" stroke="#2f7d4f" stroke-width="6" stroke-opacity="0.35" stroke-linecap="round"/>
<line x1="600.0" y1="204.0" x2="350.0" y2="258.0" stroke="#2f7d4f" stroke-width="6" stroke-opacity="0.35" stroke-linecap="round"/>
<line x1="350.0" y1="312.0" x2="600.0" y2="150.0" stroke="#2f7d4f" stroke-width="6" stroke-opacity="0.35" stroke-linecap="round"/>
<rect x="594.0" y="90.0" width="12" height="12" fill="#3d8f4f" stroke="#202124"/>
<text x="600.0" y="112.0" text-anchor="middle" font-size="9" fill="#5f6368">0</text>
<circle cx="600.0" cy="150.0" r="4" fill="#202124"/>
<text x="600.0" y="166.0" text-anchor="middle" font-size="9" fill="#5f6368">10</text>
<circle cx="600.0" cy="204.0" r="7" fill="#e8a33d" stroke="#202124"/>
<text x="600.0" y="220.0" text-anchor="middle" font-size="9" fill="#5f6368">20</text>
<circle cx="350.0" cy="258.0" r="5" fill="#ffffff" stroke="#202124"/>
<text x="350.0" y="274.0" text-anchor="middle" font-size="9" fill="#5f6368">30</text>
<circle cx="350.0" cy="312.0" r="4" fill="#202124"/>
<text x="350.0" y="328.0" text-anchor="middle" font-size="9" fill="#5f6368">40</text>
<circle cx="600.0" cy="366.0" r="7" fill="#e8a33d" stroke="#202124"/>
<text x="600.0" y="382.0" text-anchor="middle" font-size="9" fill="#5f6368">50</text>
<circle cx="100.0" cy="420.0" r="5" fill="#ffffff" stroke="#202124"/>
<text x="100.0" y="436.0" text-anchor="middle" font-size="9" fill="#5f6368">60</text>
<rect x="94.0" y="468.0" width="12" height="12" fill="#5f6368" stroke="#202124"/>
<text x="100.0" y="490.0" text-anchor="middle" font-size="9" fill="#5f6368">70</text>
<rect x="594.0" y="522.0" width="12" height="12" fill="#5f6368" stroke="#202124"/>
<text x="600.0" y="544.0" text-anchor="middle" font-size="9" fill="#5f6368">80</text>
<text x="114.0" y="478.0" font-size="14" font-weight="bold" fill="#c0392b">×</text>
<text x="118.0" y="478.0" font-size="8" fill="#5f6368">neil-stalsk</text>
<text x="614.0" y="532.0" font-size="14" font-weight="bold" fill="#2f7d4f">●</text>
<text x="618.0" y="532.0" font-size="8" fill="#5f6368">prot-fwd</text>
<line x1="600.0" y1="96.0" x2="537.9" y2="75.0" stroke="#5f6368" stroke-width="1" stroke-opacity="0.5"/>
<text x="537.9" y="61.0" font-size="9" fill="#5f6368">Kyiv opera siege - the</text>
<text x="537.9" y="72.0" font-size="9" fill="#5f6368">Protagonist is saved...</text>
<line x1="600.0" y1="150.0" x2="612.0" y2="150.0" stroke="#5f6368" stroke-width="1" stroke-opacity="0.5"/>
<text x="612.0" y="147.0" font-size="9" fill="#5f6368">Oslo freeport -</text>
<text x="612.0" y="158.0" font-size="9" fill="#5f6368">rotated-artwork fi...</text>
<line x1="600.0" y1="204.0" x2="612.0" y2="226.0" stroke="#5f6368" stroke-width="1" stroke-opacity="0.5"/>
<text x="612.0" y="234.0" font-size="9" fill="#5f6368">Tallinn turnstile -</text>
<text x="612.0" y="245.0" font-size="9" fill="#5f6368">inversion crossing</text>
<line x1="350.0" y1="258.0" x2="296.0" y2="237.0" stroke="#5f6368" stroke-width="1" stroke-opacity="0.5"/>
<text x="296.0" y="223.0" font-size="9" fill="#5f6368">Inverted: the</text>
<text x="296.0" y="234.0" font-size="9" fill="#5f6368">Protagonist and N...</text>
<line x1="350.0" y1="312.0" x2="362.0" y2="334.0" stroke="#5f6368" stroke-width="1" stroke-opacity="0.5"/>
<text x="362.0" y="342.0" font-size="9" fill="#5f6368">Inverted arrival at Oslo</text>
<text x="362.0" y="353.0" font-size="9" fill="#5f6368">- re-inversion thro...</text>
<line x1="600.0" y1="366.0" x2="612.0" y2="388.0" stroke="#5f6368" stroke-width="1" stroke-opacity="0.5"/>
<text x="612.0" y="396.0" font-size="9" fill="#5f6368">Stalsk-12 - the temporal</text>
<text x="612.0" y="407.0" font-size="9" fill="#5f6368">pincer begins (...</text>
<line x1="100.0" y1="420.0" x2="37.9" y2="399.0" stroke="#5f6368" stroke-width="1" stroke-opacity="0.5"/>
<text x="37.9" y="385.0" font-size="9" fill="#5f6368">Neil goes inverted with</text>
<text x="37.9" y="396.0" font-size="9" fill="#5f6368">blue team</text>
<line x1="100.0" y1="474.0" x2="112.0" y2="496.0" stroke="#5f6368" stroke-width="1" stroke-opacity="0.5"/>
<text x="112.0" y="504.0" font-size="9" fill="#5f6368">Neil dies inside the</text>
<text x="112.0" y="515.0" font-size="9" fill="#5f6368">tunnel - already d...</text>
<line x1="600.0" y1="528.0" x2="612.0" y2="550.0" stroke="#5f6368" stroke-width="1" stroke-opacity="0.5"/>
<text x="612.0" y="558.0" font-size="9" fill="#5f6368">The Algorithm's parts</text>
<text x="612.0" y="569.0" font-size="9" fill="#5f6368">are scattered into...</text></g>
</svg>